<svg xmlns="http://www.w3.org/2000/svg" viewBox="0 0 64 64">
  <defs>
    <linearGradient id="g" x1="0" y1="0" x2="1" y2="1">
      <stop stop-color="#FF2DAA"/>
      <stop offset=".55" stop-color="#8B5CF6"/>
      <stop offset="1" stop-color="#00D9FF"/>
    </linearGradient>
    <filter id="glow">
      <feGaussianBlur stdDeviation="2.5" result="blur"/>
      <feMerge>
        <feMergeNode in="blur"/>
        <feMergeNode in="SourceGraphic"/>
      </feMerge>
    </filter>
  </defs>
  <rect width="64" height="64" rx="18" fill="#050505"/>
  <path d="M17 15h17c9 0 14 4 14 11 0 4-2 7-6 9 5 2 8 6 8 12 0 8-6 12-16 12H17V15Zm12 10v7h6c3 0 5-1 5-4s-2-3-5-3h-6Zm0 16v8h7c4 0 6-1 6-4s-2-4-6-4h-7Z" fill="url(#g)" filter="url(#glow)"/>
</svg>
